<svg width="265" height="264" xmlns="http://www.w3.org/2000/svg" xmlns:xlink="http://www.w3.org/1999/xlink" xml:space="preserve" overflow="hidden"><g transform="translate(-29 -377)"><path d="M225.5 151.005 225.5 57.75 49.5 57.75 49.5 46.475C49.4863 34.4823 39.7677 24.7636 27.775 24.75L27.5 24.75C25.9812 24.75 24.75 25.9812 24.75 27.5 24.75 29.0188 25.9812 30.25 27.5 30.25L27.775 30.25C36.732 30.2591 43.9909 37.518 44 46.475L44 184.25C44.0126 194.43 51.9494 202.84 62.1115 203.442 53.7108 208.628 51.1044 219.641 56.2895 228.042 61.4749 236.443 72.4883 239.049 80.8891 233.864 89.2898 228.678 91.8962 217.665 86.7111 209.264 85.2692 206.928 83.3091 204.956 80.982 203.5L183.007 203.5C174.64 208.74 172.105 219.77 177.345 228.137 182.585 236.504 193.615 239.039 201.982 233.799 210.349 228.559 212.884 217.529 207.644 209.162 206.209 206.871 204.273 204.935 201.982 203.5L222.75 203.5C224.269 203.5 225.5 202.269 225.5 200.75 225.5 199.231 224.269 198 222.75 198L63.25 198C55.6597 197.991 49.5091 191.84 49.5 184.25L49.5 167.505ZM192.5 231C185.665 231 180.125 225.46 180.125 218.625 180.125 211.79 185.665 206.25 192.5 206.25 199.335 206.25 204.875 211.79 204.875 218.625 204.867 225.456 199.331 230.992 192.5 231ZM71.5 231C64.6654 231 59.125 225.46 59.125 218.625 59.125 211.79 64.6654 206.25 71.5 206.25 78.3346 206.25 83.875 211.79 83.875 218.625 83.8673 225.456 78.3313 230.992 71.5 231ZM49.5 96.25 88 96.25 88 123.75 49.5 123.75ZM176 123.75 137.5 123.75 137.5 96.25 176 96.25ZM181.5 96.25 220 96.25 220 123.75 181.5 123.75ZM137.5 129.25 176 129.25 176 150.12 137.5 153.725ZM132 154.245 93.5 157.85 93.5 129.25 132 129.25ZM137.5 90.75 137.5 63.25 176 63.25 176 90.75ZM132 90.75 93.5 90.75 93.5 63.25 132 63.25ZM132 96.25 132 123.75 93.5 123.75 93.5 96.25ZM49.5 129.25 88 129.25 88 158.37 49.5 161.975ZM181.5 149.6 181.5 129.25 220 129.25 220 145.995ZM220 90.75 181.5 90.75 181.5 63.25 220 63.25ZM88 63.25 88 90.75 49.5 90.75 49.5 63.25Z" fill="#46B1E1" transform="matrix(1.00379 0 0 1 29 377)"/></g></svg>