<svg width="264" height="265" xmlns="http://www.w3.org/2000/svg" xmlns:xlink="http://www.w3.org/1999/xlink" xml:space="preserve" overflow="hidden"><g transform="translate(-21 -31)"><path d="M85.25 85.25 55 85.25 55 66 85.25 66 85.25 85.25ZM126.5 66 126.5 85.25 96.25 85.25 96.25 66 126.5 66ZM167.75 66 167.75 85.25 137.5 85.25 137.5 66 167.75 66ZM209 66 209 85.25 178.75 85.25 178.75 66 209 66ZM209 115.5 178.75 115.5 178.75 96.25 209 96.25 209 115.5ZM209 138.875 178.75 141.625 178.75 126.5 209 126.5 209 138.875ZM85.25 126.5 85.25 149.875 55 152.625 55 126.5 85.25 126.5ZM85.25 115.5 55 115.5 55 96.25 85.25 96.25 85.25 115.5ZM126.5 115.5 96.25 115.5 96.25 96.25 126.5 96.25 126.5 115.5ZM137.5 115.5 137.5 96.25 167.75 96.25 167.75 115.5 137.5 115.5ZM126.5 146.3 96.25 149.05 96.25 126.5 126.5 126.5 126.5 146.3ZM137.5 126.5 167.75 126.5 167.75 142.45 137.5 145.2 137.5 126.5ZM225.5 154 225.5 49.5 55 49.5 55 46.75C55 33 44 22 30.25 22 25.575 22 22 25.575 22 30.25 22 34.925 25.575 38.5 30.25 38.5 34.925 38.5 38.5 42.075 38.5 46.75L38.5 184.25C38.5 198 49.5 209 63.25 209L71.5 209 192.5 209 217.25 209C221.925 209 225.5 205.425 225.5 200.75 225.5 196.075 221.925 192.5 217.25 192.5L63.25 192.5C58.575 192.5 55 188.925 55 184.25L55 169.125 225.5 154Z" fill="#46B1E1" transform="matrix(1 0 0 1.00379 21 31)"/><path d="M88 225.5C88 234.613 80.6127 242 71.5 242 62.3873 242 55 234.613 55 225.5 55 216.387 62.3873 209 71.5 209 80.6127 209 88 216.387 88 225.5Z" fill="#46B1E1" transform="matrix(1 0 0 1.00379 21 31)"/><path d="M209 225.5C209 234.613 201.613 242 192.5 242 183.387 242 176 234.613 176 225.5 176 216.387 183.387 209 192.5 209 201.613 209 209 216.387 209 225.5Z" fill="#46B1E1" transform="matrix(1 0 0 1.00379 21 31)"/></g></svg>