<svg width="265" height="265" xmlns="http://www.w3.org/2000/svg" xmlns:xlink="http://www.w3.org/1999/xlink" xml:space="preserve" overflow="hidden"><g transform="translate(-899 -360)"><path d="M1031.5 404.167C1052.84 404.167 1070.15 421.469 1070.15 442.812 1070.15 464.156 1052.84 481.458 1031.5 481.458 1010.16 481.458 992.854 464.156 992.854 442.812 992.875 421.478 1010.17 404.188 1031.5 404.167M1031.5 398.646C1007.11 398.646 987.333 418.42 987.333 442.812 987.333 467.205 1007.11 486.979 1031.5 486.979 1055.89 486.979 1075.67 467.205 1075.67 442.812 1075.67 418.42 1055.89 398.646 1031.5 398.646Z" fill="#46B1E1"/><path d="M1119.83 586.354 1114.31 586.354 1114.31 543.568C1114.18 537.704 1111.42 532.211 1106.79 528.609 1094.68 519.32 1080.82 512.577 1066.04 508.786 1054.85 505.343 1043.21 503.575 1031.5 503.542 1019.79 503.745 1008.17 505.509 996.929 508.786 982.301 513.071 968.501 519.79 956.107 528.661 951.526 532.268 948.803 537.738 948.688 543.568L948.688 586.354 943.167 586.354 943.167 543.568C943.304 536.028 946.828 528.951 952.762 524.297 965.712 515.001 980.142 507.962 995.441 503.478 1007.16 500.062 1019.29 498.227 1031.5 498.021 1043.73 498.051 1055.9 499.892 1067.59 503.484 1083.08 507.474 1097.59 514.559 1110.26 524.314 1116.19 528.967 1119.7 536.037 1119.83 543.568Z" fill="#46B1E1"/></g></svg>