<svg width="265" height="265" xmlns="http://www.w3.org/2000/svg" xmlns:xlink="http://www.w3.org/1999/xlink" xml:space="preserve" overflow="hidden"><g transform="translate(-899 -37)"><path d="M1075.67 119.812C1075.67 144.205 1055.89 163.979 1031.5 163.979 1007.11 163.979 987.333 144.205 987.333 119.812 987.333 95.4199 1007.11 75.6458 1031.5 75.6458 1055.89 75.6458 1075.67 95.4199 1075.67 119.812Z" fill="#46B1E1"/><path d="M1119.83 263.354 1119.83 219.188C1119.83 212.562 1116.52 205.938 1111 201.521 1098.85 191.583 1083.4 184.958 1067.94 180.542 1056.9 177.229 1044.75 175.021 1031.5 175.021 1019.35 175.021 1007.21 177.229 995.062 180.542 979.604 184.958 964.146 192.688 952 201.521 946.479 205.938 943.167 212.562 943.167 219.188L943.167 263.354 1119.83 263.354Z" fill="#46B1E1"/></g></svg>