<svg width="378" height="378" xmlns="http://www.w3.org/2000/svg" xmlns:xlink="http://www.w3.org/1999/xlink" xml:space="preserve" overflow="hidden"><g transform="translate(-211 -171)"><path d="M273.992 226.125 266.117 226.125 266.117 493.875 533.745 493.875 533.745 486 273.992 486 273.992 226.125Z" fill="#46B1E1"/><path d="M344.875 462.438 344.875 308.836 297.625 308.836 297.625 462.438ZM305.5 316.711 337 316.711 337 454.563 305.5 454.563Z" fill="#46B1E1"/><path d="M407.875 462.438 407.875 226.125 360.625 226.125 360.625 462.438ZM368.5 234 400 234 400 454.563 368.5 454.563Z" fill="#46B1E1"/><path d="M470.875 462.438 470.875 308.836 423.625 308.836 423.625 462.438ZM431.5 316.711 463 316.711 463 454.563 431.5 454.563Z" fill="#46B1E1"/><path d="M486.625 462.438 533.875 462.438 533.875 375.793 486.625 375.793ZM494.5 383.668 526 383.668 526 454.563 494.5 454.563Z" fill="#46B1E1"/></g></svg>