<svg width="265" height="265" xmlns="http://www.w3.org/2000/svg" xmlns:xlink="http://www.w3.org/1999/xlink" xml:space="preserve" overflow="hidden"><g transform="translate(-321 -37)"><path d="M530.792 158.458C530.792 164.531 525.823 169.5 519.75 169.5 513.677 169.5 508.708 164.531 508.708 158.458L508.708 147.417 503.188 92.2083 525.271 92.2083 530.792 147.417 530.792 158.458ZM486.625 158.458C486.625 164.531 481.656 169.5 475.583 169.5 469.51 169.5 464.542 164.531 464.542 158.458L464.542 147.417 461.781 92.2083 483.865 92.2083 486.625 147.417 486.625 158.458ZM442.458 147.417 442.458 158.458C442.458 164.531 437.49 169.5 431.417 169.5 425.344 169.5 420.375 164.531 420.375 158.458L420.375 147.417 423.135 92.2083 445.219 92.2083 442.458 147.417ZM431.417 235.75 387.25 235.75 387.25 191.583 431.417 191.583 431.417 235.75ZM376.208 158.458 376.208 147.417 381.729 92.2083 403.812 92.2083 398.292 147.417 398.292 158.458C398.292 164.531 393.323 169.5 387.25 169.5 381.177 169.5 376.208 164.531 376.208 158.458ZM541.833 75.6458 365.167 75.6458 354.125 147.417 354.125 158.458C354.125 164.531 359.094 169.5 365.167 169.5L365.167 263.354 459.021 263.354 459.021 191.583 519.75 191.583 519.75 263.354 541.833 263.354 541.833 169.5C547.906 169.5 552.875 164.531 552.875 158.458L552.875 147.417 541.833 75.6458Z" fill="#46B1E1"/></g></svg>