<svg width="265" height="264" xmlns="http://www.w3.org/2000/svg" xmlns:xlink="http://www.w3.org/1999/xlink" xml:space="preserve" overflow="hidden"><g transform="translate(-320 -377)"><path d="M213.851 38.5 50.149 38.5 33.099 101.027 33 118.25C33.008 125.236 37.414 131.459 44 133.788L44 225.5 220 225.5 220 133.788C226.586 131.459 230.992 125.236 231 118.25L231 101.75ZM154 101.503 148.775 44 173.8 44 187 102.058 187 113.025C186.991 121.982 179.732 129.241 170.775 129.25L170.225 129.25C161.268 129.241 154.009 121.982 154 113.025L154 101.75ZM148.5 113.025C148.491 121.982 141.232 129.241 132.275 129.25L131.725 129.25C122.768 129.241 115.509 121.982 115.5 113.025L115.5 101.879 120.761 44 143.239 44 148.5 101.75ZM115.239 44 110 101.75 110 113.025C109.991 121.982 102.732 129.241 93.775 129.25L93.225 129.25C84.268 129.241 77.0091 121.982 77 113.025L77 102.058 90.2 44ZM71.5 101.75 71.5 113.025C71.4909 121.982 64.232 129.241 55.275 129.25L49.5 129.25C43.425 129.25 38.5 124.325 38.5 118.25L38.5 102.118 54.351 44 84.5543 44 71.5687 101.139ZM143 220 143 156.75 189.75 156.75 189.75 220ZM214.5 220 195.25 220 195.25 151.25 137.5 151.25 137.5 220 49.5 220 49.5 134.75 55.275 134.75C63.1587 134.745 70.4209 130.468 74.25 123.577 78.0791 130.468 85.3413 134.745 93.225 134.75L93.775 134.75C101.659 134.745 108.921 130.468 112.75 123.577 116.579 130.468 123.841 134.745 131.725 134.75L132.275 134.75C140.159 134.745 147.421 130.468 151.25 123.577 155.079 130.468 162.341 134.745 170.225 134.75L170.775 134.75C178.659 134.745 185.921 130.468 189.75 123.577 193.579 130.468 200.841 134.745 208.725 134.75L214.5 134.75ZM225.5 118.25C225.5 124.325 220.575 129.25 214.5 129.25L208.725 129.25C199.768 129.241 192.509 121.982 192.5 113.025L192.5 101.75 179.446 44 209.649 44 225.5 102.118Z" fill="#46B1E1" transform="matrix(1.00379 0 0 1 320 377)"/><path d="M68.75 198 115.5 198 115.5 151.25 68.75 151.25ZM74.25 156.75 110 156.75 110 192.5 74.25 192.5Z" fill="#46B1E1" transform="matrix(1.00379 0 0 1 320 377)"/></g></svg>