<svg width="265" height="264" xmlns="http://www.w3.org/2000/svg" xmlns:xlink="http://www.w3.org/1999/xlink" xml:space="preserve" overflow="hidden"><g transform="translate(-634 -377)"><path d="M88 68.75 162.25 68.75 162.25 74.25 88 74.25Z" fill="#46B1E1" transform="matrix(1.00379 0 0 1 634 377)"/><path d="M115.5 110 162.25 110 162.25 115.5 115.5 115.5Z" fill="#46B1E1" transform="matrix(1.00379 0 0 1 634 377)"/><path d="M88 110 104.5 110 104.5 115.5 88 115.5Z" fill="#46B1E1" transform="matrix(1.00379 0 0 1 634 377)"/><path d="M115.5 137.5 162.25 137.5 162.25 143 115.5 143Z" fill="#46B1E1" transform="matrix(1.00379 0 0 1 634 377)"/><path d="M88 137.5 104.5 137.5 104.5 143 88 143Z" fill="#46B1E1" transform="matrix(1.00379 0 0 1 634 377)"/><path d="M115.5 165 162.25 165 162.25 170.5 115.5 170.5Z" fill="#46B1E1" transform="matrix(1.00379 0 0 1 634 377)"/><path d="M88 165 104.5 165 104.5 170.5 88 170.5Z" fill="#46B1E1" transform="matrix(1.00379 0 0 1 634 377)"/><path d="M192.5 192.5 192.5 96.25 236.5 96.25 236.5 51.975C236.483 38.4648 225.535 27.5168 212.025 27.5L82.225 27.5C68.7148 27.5168 57.7668 38.4648 57.75 51.975L57.75 192.5 24.75 192.5 24.75 239.25 225.5 239.25 225.5 192.5ZM196.045 33C190.324 37.6381 187 44.61 187 51.975L187 211.75 63.25 211.75 63.25 51.975C63.2621 41.5005 71.7505 33.0121 82.225 33ZM192.5 90.75 192.5 51.975C192.512 41.5005 201.001 33.0121 211.475 33L212.025 33C222.499 33.0121 230.988 41.5005 231 51.975L231 90.75ZM192.5 217.25 203.5 217.25 203.5 211.75 192.5 211.75 192.5 198 220 198 220 233.75 30.25 233.75 30.25 198 57.75 198 57.75 211.75 46.75 211.75 46.75 217.25 192.5 217.25Z" fill="#46B1E1" transform="matrix(1.00379 0 0 1 634 377)"/></g></svg>