<svg width="264" height="265" xmlns="http://www.w3.org/2000/svg" xmlns:xlink="http://www.w3.org/1999/xlink" xml:space="preserve" overflow="hidden"><g transform="translate(-621 -37)"><path d="M85.25 68.75 159.5 68.75 159.5 79.75 85.25 79.75Z" fill="#46B1E1" transform="matrix(1 0 0 1.00379 621 37)"/><path d="M112.75 110 159.5 110 159.5 121 112.75 121Z" fill="#46B1E1" transform="matrix(1 0 0 1.00379 621 37)"/><path d="M85.25 110 99 110 99 121 85.25 121Z" fill="#46B1E1" transform="matrix(1 0 0 1.00379 621 37)"/><path d="M112.75 137.5 159.5 137.5 159.5 148.5 112.75 148.5Z" fill="#46B1E1" transform="matrix(1 0 0 1.00379 621 37)"/><path d="M85.25 137.5 99 137.5 99 148.5 85.25 148.5Z" fill="#46B1E1" transform="matrix(1 0 0 1.00379 621 37)"/><path d="M112.75 165 159.5 165 159.5 176 112.75 176Z" fill="#46B1E1" transform="matrix(1 0 0 1.00379 621 37)"/><path d="M85.25 165 99 165 99 176 85.25 176Z" fill="#46B1E1" transform="matrix(1 0 0 1.00379 621 37)"/><path d="M22 200.75 22 239.25 222.75 239.25 222.75 200.75 195.25 200.75 195.25 101.75 239.25 101.75 239.25 55C239.25 38.225 225.775 24.75 209 24.75L79.75 24.75C62.975 24.75 49.5 38.225 49.5 55L49.5 200.75 22 200.75ZM182.05 41.25C179.85 45.375 178.75 50.325 178.75 55L178.75 214.5 66 214.5 66 55C66 47.3 72.05 41.25 79.75 41.25L182.05 41.25ZM195.25 85.25 195.25 55C195.25 47.3 201.3 41.25 209 41.25 216.7 41.25 222.75 47.3 222.75 55L222.75 85.25 195.25 85.25Z" fill="#46B1E1" transform="matrix(1 0 0 1.00379 621 37)"/></g></svg>